<svg xmlns="http://www.w3.org/2000/svg" viewBox="0 0 512 512" width="512" height="512"><title>Sabina — 舒爾特方格</title><defs><linearGradient id="coral" x1="0" y1="0" x2="1" y2="1"><stop offset="0" stop-color="#FFB088"/><stop offset="0.5" stop-color="#FF7A9C"/><stop offset="1" stop-color="#F65C8E"/></linearGradient></defs><rect width="512" height="512" rx="116" fill="url(#coral)"/><rect x="108.0" y="108.0" width="85.3" height="85.3" rx="18" fill="#FFF7ED"/><path d="M84 0V113H274V609L83 469V609L251 730H399V113H552V0Z" transform="translate(127.656,177.120) scale(0.07247,-0.07247)" fill="#F0568A"/><rect x="213.3" y="108.0" width="85.3" height="85.3" rx="18" fill="#FFF7ED" opacity="0.30"/><rect x="318.7" y="108.0" width="85.3" height="85.3" rx="18" fill="#FFF7ED" opacity="0.30"/><rect x="108.0" y="213.3" width="85.3" height="85.3" rx="18" fill="#FFF7ED" opacity="0.30"/><rect x="213.3" y="213.3" width="85.3" height="85.3" rx="18" fill="#FFF7ED" opacity="0.30"/><rect x="318.7" y="213.3" width="85.3" height="85.3" rx="18" fill="#FFF7ED" opacity="0.30"/><rect x="108.0" y="318.7" width="85.3" height="85.3" rx="18" fill="#FFF7ED" opacity="0.30"/><rect x="213.3" y="318.7" width="85.3" height="85.3" rx="18" fill="#FFF7ED" opacity="0.30"/><rect x="318.7" y="318.7" width="85.3" height="85.3" rx="18" fill="#FFF7ED" opacity="0.30"/></svg>
